<svg width="140" height="140" viewBox="0 0 140 140" fill="none" xmlns="http://www.w3.org/2000/svg">
<circle cx="70" cy="70" r="70" fill="#EDECFF"/>
<path d="M29 110C29 104.477 33.4772 100 39 100H59C61.2091 100 63 101.791 63 104V114C63 117.314 60.3137 120 57 120H39C33.4772 120 29 115.523 29 110Z" fill="#7E77FF"/>
<path d="M112.421 104.6C110.991 99.265 105.508 96.0992 100.173 97.5286L80.8547 102.705C78.7209 103.277 77.4546 105.47 78.0263 107.604L80.6145 117.263C81.4722 120.464 84.7622 122.364 87.963 121.506L105.35 116.847C110.684 115.418 113.85 109.934 112.421 104.6Z" fill="#7E77FF"/>
<path d="M64.2513 26.6426C66.5516 20.1586 78.4916 20.6113 80.7918 27.0953C81.1395 28.0752 82.4815 28.3276 83.1993 27.548C87.9493 22.3897 95.1958 22.357 94.6962 29.1797C94.6207 30.2107 95.7584 30.9294 96.7371 30.4689C103.214 27.4216 108.033 39.0806 104.809 45.2032C104.322 46.1284 105.082 47.204 106.173 47.1326C113.39 46.6603 119.833 51.2059 114.377 55.6961C113.552 56.3747 113.819 57.6433 114.856 57.972C121.715 60.1464 121.715 75.276 114.856 77.2997C113.819 77.6055 113.552 78.7862 114.377 79.4177C119.833 83.5966 113.39 92.7323 106.173 92.2928C105.082 92.2264 104.322 93.2273 104.809 94.0884C108.033 99.7862 101.173 103.653 94.6962 100.817C93.7174 100.388 92.5797 101.057 92.6552 102.016C93.1548 108.366 87.9493 110.853 83.1993 106.053C82.4815 105.328 81.1395 105.562 80.7918 106.474C78.4916 112.509 61.5267 112.509 59.2264 106.474C58.8788 105.562 57.5367 105.328 56.8189 106.053C52.0689 110.853 44.571 107.166 45.0706 100.817C45.1461 99.8572 44.0084 99.1884 43.0297 99.6169C36.5531 102.453 28.7225 95.3655 31.946 89.6677C32.4331 88.8067 31.6729 87.8057 30.5822 87.8722C23.3651 88.3117 19.9332 78.2819 25.3897 74.1031C26.2143 73.4716 25.9474 72.2909 24.9108 71.9851C18.0519 69.9614 18.5312 61.3341 25.3901 59.1595C26.4267 58.8309 26.6936 57.5622 25.869 56.8836C20.4125 52.3932 24.7288 43.249 31.946 43.7213C33.0366 43.7927 33.7968 42.7172 33.3097 41.7919C30.0862 35.6693 34.5122 28.7108 40.9887 31.7581C41.9674 32.2186 43.1052 31.4999 43.0297 30.4689C42.5301 23.6462 57.0938 21.937 61.8438 27.0953C62.5616 27.8749 63.9037 27.6225 64.2513 26.6426Z" fill="#C8C5FF"/>
<circle cx="58" cy="62" r="14" fill="#F8F7FF"/>
<circle cx="82" cy="62" r="14" fill="#F8F7FF"/>
<circle cx="54" cy="60" r="7" fill="#4B5563"/>
<circle cx="78" cy="60" r="7" fill="#4B5563"/>
<path d="M66 79C67.7686 82.0951 72.2314 82.0951 74 79" stroke="#918AFF" stroke-width="2.5" stroke-linecap="round"/>
</svg>
