<svg width="40" height="40" viewBox="0 0 40 40" fill="none" xmlns="http://www.w3.org/2000/svg">
<rect width="40" height="40" rx="12" fill="#FFF0F4"/>
<path d="M13 12L11 14" stroke="#FF6B8A" stroke-width="2" stroke-linecap="round"/>
<path d="M27 12L29 14" stroke="#FF6B8A" stroke-width="2" stroke-linecap="round"/>
<path d="M20 12C24.4183 12 28 15.5817 28 20C28 24.4183 24.4183 28 20 28C15.5817 28 12 24.4183 12 20C12 15.5817 15.5817 12 20 12ZM22.625 16.7188C22.1937 16.3737 21.5638 16.4437 21.2188 16.875L19.791 18.6592L17.5547 17.168C17.0952 16.8616 16.4743 16.9858 16.168 17.4453C15.8616 17.9048 15.9858 18.5257 16.4453 18.832L19.2549 20.7051C19.7943 21.0645 20.5189 20.9515 20.9238 20.4453L22.7812 18.125C23.1263 17.6937 23.0563 17.0638 22.625 16.7188Z" fill="#FF6B8A"/>
</svg>
