<svg width="40" height="40" viewBox="0 0 40 40" fill="none" xmlns="http://www.w3.org/2000/svg">
<rect width="40" height="40" rx="12" fill="#EDECFF"/>
<path d="M27 10C28.6569 10 30 11.3431 30 13V21H25C24.3212 21 23.7113 20.9975 23.2207 21.0635C22.7014 21.1333 22.1688 21.296 21.7324 21.7324C21.296 22.1688 21.1333 22.7014 21.0635 23.2207C20.9975 23.7113 21 24.3212 21 25V30H13C11.3431 30 10 28.6569 10 27V13C10 11.3431 11.3431 10 13 10H27ZM29.7266 23C29.5792 23.3234 29.3772 23.6228 29.1211 23.8789L23.8789 29.1211C23.6228 29.3772 23.3234 29.5792 23 29.7266V25C23 24.2646 23.002 23.8137 23.0459 23.4873C23.0859 23.1898 23.1436 23.1494 23.1465 23.1465C23.1494 23.1436 23.1897 23.0859 23.4873 23.0459C23.8137 23.002 24.2646 23 25 23H29.7266Z" fill="#7E77FF"/>
</svg>
