<svg width="40" height="40" viewBox="0 0 40 40" fill="none" xmlns="http://www.w3.org/2000/svg">
<rect width="40" height="40" rx="12" fill="#C5F1ED"/>
<path d="M29.1538 20.9231C29.7061 20.9231 30.1585 21.3717 30.1087 21.9218C29.9423 23.7602 29.3184 25.5335 28.287 27.0771C27.0699 28.8987 25.3399 30.3185 23.3159 31.1569C21.2918 31.9952 19.0646 32.2146 16.9159 31.7872C14.7672 31.3598 12.7935 30.3048 11.2444 28.7557C9.69522 27.2065 8.64025 25.2328 8.21284 23.0841C7.78543 20.9354 8.00479 18.7082 8.84318 16.6842C9.68157 14.6601 11.1013 12.9301 12.9229 11.713C14.4665 10.6816 16.2399 10.0577 18.0783 9.89129C18.6283 9.84151 19.0769 10.2939 19.0769 10.8462V19.9231C19.0769 20.4754 19.5246 20.9231 20.0769 20.9231H29.1538Z" fill="#75DFD5"/>
<path d="M11.9515 28.0486C11.5609 28.4391 10.9238 28.4418 10.5701 28.0176C9.38782 26.6 8.57502 24.9049 8.21284 23.0841C7.78543 20.9354 8.00479 18.7082 8.84318 16.6842C9.68157 14.6601 11.1013 12.9301 12.9229 11.713C14.4665 10.6816 16.2399 10.0577 18.0783 9.89129C18.6283 9.84151 19.0769 10.2939 19.0769 10.8462V20.5089C19.0769 20.7741 18.9716 21.0285 18.784 21.216L11.9515 28.0486Z" fill="#2EC4B6"/>
<path d="M20.9231 9C20.9231 8.44771 21.3717 7.99532 21.9218 8.04511C23.0341 8.1458 24.1267 8.41432 25.1621 8.84318C26.506 9.39985 27.7271 10.2158 28.7557 11.2444C29.7843 12.2729 30.6002 13.4941 31.1569 14.838C31.5857 15.8733 31.8542 16.966 31.9549 18.0783C32.0047 18.6283 31.5523 19.0769 31 19.0769L21.9231 19.0769C21.3708 19.0769 20.9231 18.6292 20.9231 18.0769V9Z" fill="#27A498"/>
</svg>
