<svg xmlns="http://www.w3.org/2000/svg" width="40" height="40" viewBox="0 0 40 40" fill="none">
  <rect x="2" y="2" width="36" height="36" rx="10" fill="#6C63FF"/>
  <mask id="mask0_724_38537" style="mask-type:alpha" maskUnits="userSpaceOnUse" x="2" y="2" width="36" height="36">
    <rect x="2" y="2" width="36" height="36" rx="10" fill="#7E77FF"/>
  </mask>
  <g mask="url(#mask0_724_38537)">
    <path d="M17.4706 13.0344C18.4827 10.1931 23.7363 10.3914 24.7484 13.2328C24.9014 13.6622 25.4919 13.7727 25.8077 13.4312C27.8977 11.1708 31.0861 11.1564 30.8663 14.1461C30.8331 14.598 31.3337 14.9129 31.7643 14.7111C34.614 13.3758 36.7344 18.4848 35.3161 21.1677C35.1017 21.5731 35.4362 22.0444 35.9161 22.0132C39.0916 21.8062 41.9267 23.7981 39.5258 25.7657C39.163 26.0631 39.2805 26.619 39.7365 26.763C42.7545 27.7159 42.7545 34.3457 39.7365 35.2325C39.2805 35.3665 39.163 35.8838 39.5258 36.1606C41.9267 37.9918 39.0916 41.9951 35.9161 41.8025C35.4362 41.7734 35.1017 42.212 35.3161 42.5893C36.7344 45.0861 33.716 46.7803 30.8663 45.5376C30.4357 45.3498 29.9351 45.6429 29.9683 46.0634C30.1881 48.8457 27.8977 49.9358 25.8077 47.8322C25.4919 47.5143 24.9014 47.6172 24.7484 48.0168C23.7363 50.6611 16.2717 50.6611 15.2596 48.0168C15.1067 47.6172 14.5162 47.5143 14.2003 47.8322C12.1103 49.9358 8.81125 48.3199 9.03108 45.5376C9.0643 45.1172 8.5637 44.8241 8.13305 45.0119C5.28337 46.2546 1.8379 43.1489 3.25622 40.6521C3.47056 40.2748 3.13607 39.8362 2.65618 39.8653C-0.519349 40.0579 -2.02941 35.6629 0.37147 33.8317C0.734295 33.555 0.616838 33.0376 0.160764 32.9036C-2.85717 32.0168 -2.64628 28.2363 0.371653 27.2834C0.827727 27.1394 0.945183 26.5834 0.582359 26.2861C-1.81852 24.3184 0.0806916 20.3114 3.25622 20.5183C3.73611 20.5496 4.0706 20.0783 3.85626 19.6729C2.43794 16.9899 4.38535 13.9407 7.23503 15.276C7.66568 15.4778 8.16627 15.1629 8.13305 14.7111C7.91322 11.7214 14.3213 10.9724 16.4113 13.2328C16.7271 13.5744 17.3176 13.4638 17.4706 13.0344Z" fill="#DBD9FF"/>
    <circle cx="13.5" cy="21.5" r="5.5" fill="#F8F7FF"/>
    <circle cx="22.9282" cy="21.5" r="5.5" fill="#F8F7FF"/>
    <circle cx="11.9282" cy="20.7139" r="2.75" fill="#374151"/>
    <circle cx="21.3569" cy="20.7139" r="2.75" fill="#374151"/>
  </g>
</svg>