<svg width="22" height="22" viewBox="0 0 22 22" fill="none" xmlns="http://www.w3.org/2000/svg">
<path d="M8.8333 7.66708C8.51112 7.3449 7.98876 7.3449 7.66658 7.66708C7.3444 7.98927 7.3444 8.51163 7.66658 8.83381L9.83321 11.0005L7.66658 13.1671C7.3444 13.4893 7.3444 14.0116 7.66658 14.3338C7.98876 14.656 8.51112 14.656 8.8333 14.3338L10.9999 12.1672L13.1666 14.3338C13.4887 14.656 14.0111 14.656 14.3333 14.3338C14.6555 14.0116 14.6555 13.4893 14.3333 13.1671L12.1667 11.0005L14.3333 8.83381C14.6555 8.51163 14.6555 7.98927 14.3333 7.66708C14.0111 7.3449 13.4887 7.3449 13.1666 7.66708L10.9999 9.83372L8.8333 7.66708Z" fill="currentColor"/>
<path fill-rule="evenodd" clip-rule="evenodd" d="M10.9999 1.92509C5.98797 1.92509 1.92496 5.98811 1.92496 11.0001C1.92496 16.0121 5.98797 20.0751 10.9999 20.0751C16.0119 20.0751 20.0749 16.0121 20.0749 11.0001C20.0749 5.98811 16.0119 1.92509 10.9999 1.92509ZM3.57496 11.0001C3.57496 6.89937 6.89923 3.57509 10.9999 3.57509C15.1006 3.57509 18.4249 6.89937 18.4249 11.0001C18.4249 15.1008 15.1006 18.4251 10.9999 18.4251C6.89923 18.4251 3.57496 15.1008 3.57496 11.0001Z" fill="currentColor"/>
</svg>
