<svg width="80" height="80" viewBox="0 0 80 80" fill="none" xmlns="http://www.w3.org/2000/svg">
<ellipse cx="39.9" cy="63.4984" rx="27.9" ry="8.1" fill="#F3F4F6"/>
<path d="M16.8851 20.6783C16.839 19.9856 17.3883 19.3984 18.0825 19.3984H61.7171C62.4113 19.3984 62.9607 19.9856 62.9145 20.6783L60.3732 58.7975C60.1631 61.9493 57.5453 64.3984 54.3865 64.3984H25.4131C22.2543 64.3984 19.6365 61.9493 19.4264 58.7976L16.8851 20.6783Z" fill="#E5E7EB"/>
<path d="M13.2002 18.5016C13.2002 16.3477 14.9463 14.6016 17.1002 14.6016H62.7002C64.8541 14.6016 66.6002 16.3477 66.6002 18.5016C66.6002 20.6555 64.8541 22.4016 62.7002 22.4016H17.1002C14.9463 22.4016 13.2002 20.6555 13.2002 18.5016Z" fill="#D1D5DB"/>
<path d="M31.2002 18.2V10.4C31.2002 9.07451 32.2747 8 33.6002 8H46.2002C47.5257 8 48.6002 9.07452 48.6002 10.4V18.2" stroke="#D1D5DB" stroke-width="4.8"/>
<path d="M40.2002 30.5L40.2002 54.5" stroke="#D1D5DB" stroke-width="4.2" stroke-linecap="round"/>
<path d="M50.9996 30.8008L48.5996 54.8008" stroke="#D1D5DB" stroke-width="4.2" stroke-linecap="round"/>
<path d="M29.3998 30.8008L31.7998 54.8008" stroke="#D1D5DB" stroke-width="4.2" stroke-linecap="round"/>
</svg>
