<svg width="22" height="22" viewBox="0 0 22 22" fill="none" xmlns="http://www.w3.org/2000/svg">
<path fill-rule="evenodd" clip-rule="evenodd" d="M1.92499 11.0001C1.92499 5.98811 5.98799 1.92509 11 1.92509C16.0119 1.92509 20.0749 5.98811 20.0749 11.0001C20.0749 16.0121 16.0119 20.0751 11 20.0751C5.98799 20.0751 1.92499 16.0121 1.92499 11.0001ZM8.37499 7.20842C8.05281 6.88623 7.53045 6.88623 7.20827 7.20841C6.88609 7.5306 6.88609 8.05296 7.20827 8.37514L9.83323 11.0001L7.20827 13.6251C6.88609 13.9473 6.88609 14.4696 7.20827 14.7918C7.53045 15.114 8.05281 15.114 8.37499 14.7918L11 12.1668L13.6249 14.7918C13.9471 15.114 14.4695 15.114 14.7916 14.7918C15.1138 14.4696 15.1138 13.9473 14.7916 13.6251L12.1667 11.0001L14.7916 8.37514C15.1138 8.05296 15.1138 7.5306 14.7916 7.20841C14.4695 6.88623 13.9471 6.88623 13.6249 7.20842L11 9.83338L8.37499 7.20842Z" fill="currentColor"/>
</svg>
