<svg
  width="24"
  height="24"
  viewBox="0 0 24 24"
  fill="none"
  xmlns="http://www.w3.org/2000/svg"
>
  <path
    d="M10.9102 3.16895C11.3391 2.2391 12.6609 2.2391 13.0898 3.16895L15.1113 7.55176C15.1405 7.61479 15.2005 7.65784 15.2695 7.66602L20.0625 8.23438C21.0793 8.35499 21.488 9.61237 20.7363 10.3076L17.1924 13.584C17.1413 13.6312 17.1183 13.7023 17.1318 13.7705L18.0723 18.5039C18.2718 19.5082 17.2031 20.2852 16.3096 19.7852L12.0977 17.4277C12.037 17.3938 11.963 17.3938 11.9023 17.4277L7.69043 19.7852C6.79692 20.2852 5.72818 19.5082 5.92773 18.5039L6.86816 13.7705C6.88172 13.7023 6.85868 13.6312 6.80762 13.584L3.26367 10.3076C2.51202 9.61237 2.92073 8.35499 3.9375 8.23438L8.73047 7.66602C8.79945 7.65784 8.8595 7.61479 8.88867 7.55176L10.9102 3.16895Z"
    fill="#F8F7FF"
    stroke="#DBD9FF"
  />
</svg>
