<svg
  width="24"
  height="24"
  viewBox="0 0 24 24"
  fill="none"
  xmlns="http://www.w3.org/2000/svg"
>
  <path
    d="M15.7256 4.42383C16.1501 4.4692 16.4888 4.4639 16.7578 4.86914C17.0421 5.08606 17.3469 5.39376 17.6602 5.70703L18.293 6.33984C18.6062 6.65312 18.9139 6.95792 19.1309 7.24219C19.3654 7.54958 19.5859 7.94825 19.5859 8.46191C19.5858 8.9754 19.3653 9.37334 19.1309 9.68066C18.9139 9.96497 18.6063 10.2697 18.293 10.583L9.71387 19.1611C9.5568 19.3182 9.35344 19.5343 9.08984 19.6836C8.82613 19.8329 8.53587 19.8963 8.32031 19.9502L5.05078 20.7676C4.90293 20.8045 4.68155 20.8628 4.4873 20.8818C4.28061 20.9021 3.82874 20.9088 3.45996 20.54C3.09118 20.1713 3.09794 19.7194 3.11816 19.5127C3.13719 19.3184 3.19546 19.0971 3.23242 18.9492L4.0498 15.6797C4.10369 15.4641 4.16709 15.1739 4.31641 14.9102C4.46571 14.6466 4.6818 14.4432 4.83887 14.2861L13.417 5.70703C13.7303 5.3937 14.035 5.08607 14.3193 4.86914C14.6267 4.63466 15.0246 4.41417 15.5381 4.41406L15.7256 4.42383Z"
    stroke="white"
    strokeWidth="2"
  />
  <path
    d="M13 6.33333L16.5 4L20 7.5L17.6667 11L13 6.33333Z"
    fill="white"
  />
</svg>
