<svg width="24" height="24" viewBox="0 0 24 24" fill="none" xmlns="http://www.w3.org/2000/svg">
<path d="M20.2999 5C20.9546 5 21.2821 5.0001 21.5225 5.14746C21.657 5.22991 21.7702 5.343 21.8526 5.47754C22 5.71801 22.0001 6.04552 22.0001 6.7002V7.65918C22.0001 8.06828 21.6679 8.40039 21.2589 8.40039C20.4408 8.40061 19.7774 9.06377 19.7774 9.88184V16C19.7774 18.8281 19.7779 20.2424 18.8995 21.1211C18.0208 21.9998 16.6058 22 13.7774 22H10.2217C7.39363 22 5.97928 21.9997 5.10065 21.1211C4.22221 20.2424 4.22174 18.8282 4.22174 16V9.88184C4.22174 9.06364 3.55849 8.40039 2.7403 8.40039C2.3314 8.40015 2.00006 8.06813 2.00006 7.65918V6.7002C2.00006 6.04551 2.00016 5.71801 2.14752 5.47754C2.22998 5.343 2.34306 5.22991 2.4776 5.14746C2.71807 5.00012 3.04559 5 3.70026 5H20.2999ZM9.50006 10C8.94778 10 8.50006 10.4477 8.50006 11V16C8.50006 16.5523 8.94778 17 9.50006 17C10.0523 17 10.5001 16.5523 10.5001 16V11C10.5001 10.4477 10.0523 10 9.50006 10ZM14.5001 10C13.9478 10 13.5001 10.4477 13.5001 11V16C13.5001 16.5523 13.9478 17 14.5001 17C15.0523 17 15.5001 16.5523 15.5001 16V11C15.5001 10.4477 15.0523 10 14.5001 10Z" fill="currentColor"/>
<path d="M10.0681 2.37059C10.1821 2.26427 10.4332 2.17033 10.7825 2.10332C11.1318 2.03632 11.5597 2 12 2C12.4403 2 12.8682 2.03632 13.2175 2.10332C13.5668 2.17033 13.8179 2.26427 13.9319 2.37059" stroke="currentColor" stroke-width="2" stroke-linecap="round"/>
</svg>
