<svg xmlns="http://www.w3.org/2000/svg" width="32" height="32" viewBox="0 0 32 32" fill="none">
  <path fill-rule="evenodd" clip-rule="evenodd" d="M4.11826 22.1091L13.4381 6.8585C14.6084 4.94347 17.39 4.9445 18.5589 6.8604L27.8787 22.1363C29.0993 24.137 27.6572 26.702 25.3136 26.6988L6.67403 26.6734C4.33306 26.6703 2.89756 24.1066 4.11826 22.1091ZM17.4751 11.9995C17.4751 12.7359 16.8464 13.3329 16.0709 13.3329C15.2954 13.3329 14.6667 12.7359 14.6667 11.9995C14.6667 11.2631 15.2954 10.6662 16.0709 10.6662C16.8464 10.6662 17.4751 11.2631 17.4751 11.9995ZM17.25 23.9995V15.9995H14.75V23.9995H17.25Z" fill="#FF6B8A"/>
</svg>