<svg
  width="26"
  height="26"
  viewBox="0 0 26 26"
  fill="none"
  xmlns="http://www.w3.org/2000/svg"
>
  <path
    d="M9.35419 23C10.0593 23.6224 10.9856 24 12 24C13.0145 24 13.9407 23.6224 14.6458 23M18 10C18 8.4087 17.3679 6.88258 16.2427 5.75736C15.1174 4.63214 13.5913 4 12 4C10.4087 4 8.8826 4.63214 7.75738 5.75736C6.63216 6.88258 6.00002 8.4087 6.00002 10C6.00002 13.0902 5.22049 15.206 4.34968 16.6054C3.61515 17.7859 3.24788 18.3761 3.26134 18.5408C3.27626 18.7231 3.31488 18.7926 3.46179 18.9016C3.59448 19 4.19261 19 5.38887 19H18.6112C19.8074 19 20.4056 19 20.5382 18.9016C20.6852 18.7926 20.7238 18.7231 20.7387 18.5408C20.7522 18.3761 20.3849 17.7859 19.6504 16.6054C18.7795 15.206 18 13.0902 18 10Z"
    stroke="currentColor"
    stroke-width="2"
    stroke-linecap="round"
    stroke-linejoin="round"
  />
  <circle
    cx="23.5"
    cy="2.5"
    r="2.5"
    fill="#2EC4B6"
  />
</svg>
