<svg width="24" height="24" viewBox="0 0 24 24" fill="none" xmlns="http://www.w3.org/2000/svg">
<path fill-rule="evenodd" clip-rule="evenodd" d="M12 2C15.1063 2 16.6596 2.00034 17.8848 2.50781C19.518 3.18443 20.8156 4.48195 21.4922 6.11523C21.9997 7.34037 22 8.89372 22 12C22 15.1063 21.9997 16.6596 21.4922 17.8848C20.8156 19.518 19.518 20.8156 17.8848 21.4922C16.6596 21.9997 15.1063 22 12 22H8.66699C5.52429 22 3.95287 21.9997 2.97656 21.0234C2.00025 20.0471 2 18.4757 2 15.333V12C2 8.89372 2.00034 7.34037 2.50781 6.11523C3.18443 4.48195 4.48195 3.18443 6.11523 2.50781C7.34037 2.00034 8.89372 2 12 2ZM9 13C8.44772 13 8 13.4477 8 14C8.00018 14.5521 8.44783 15 9 15H12C12.5522 15 12.9998 14.5521 13 14C13 13.4477 12.5523 13 12 13H9ZM9 9C8.44772 9 8 9.44771 8 10C8.00018 10.5521 8.44783 11 9 11H15C15.5522 11 15.9998 10.5521 16 10C16 9.44771 15.5523 9 15 9H9Z" fill="currentColor"/>
</svg>
