<svg xmlns="http://www.w3.org/2000/svg" width="121" height="25" viewBox="0 0 121 25" fill="none">
  <path d="M49.089 5.56173V12.3025L50.9198 9.30659C51.0585 9.0708 51.2596 8.95291 51.5232 8.95291H55.7257C55.8644 8.95291 55.9823 9.00145 56.0794 9.09854C56.1765 9.19563 56.225 9.30659 56.225 9.43142C56.225 9.55625 56.1904 9.66721 56.121 9.7643L53.2708 13.8212L56.6411 19.0016C56.6966 19.0848 56.7244 19.1889 56.7244 19.3137C56.7244 19.4247 56.6758 19.5287 56.5787 19.6258C56.4816 19.7229 56.3637 19.7714 56.225 19.7714H51.856C51.5786 19.7714 51.3637 19.6535 51.2111 19.4177L49.089 15.8809V19.2097C49.089 19.3622 49.0335 19.494 48.9226 19.605C48.8116 19.7159 48.6798 19.7714 48.5273 19.7714H44.8864C44.7339 19.7714 44.6021 19.7159 44.4911 19.605C44.3802 19.494 44.3247 19.3622 44.3247 19.2097V5.56173C44.3247 5.40916 44.3802 5.2774 44.4911 5.16644C44.6021 5.05548 44.7339 5 44.8864 5H48.5273C48.6798 5 48.8116 5.05548 48.9226 5.16644C49.0335 5.2774 49.089 5.40916 49.089 5.56173Z" fill="#1F2937"/>
  <path d="M37.7396 16.7753C37.7396 16.6366 37.7049 16.5256 37.6355 16.4424C37.4552 16.2205 36.7895 16.0055 35.6383 15.7975C34.4871 15.5755 33.5509 15.1941 32.8296 14.6532C32.1223 14.0984 31.7686 13.3286 31.7686 12.3439C31.7686 11.3591 32.2402 10.513 33.1833 9.80567C34.1265 9.09831 35.3956 8.74463 36.9906 8.74463C38.5995 8.74463 39.9171 9.07751 40.9435 9.74326C41.9699 10.409 42.4831 11.0817 42.4831 11.7613C42.4831 11.9139 42.4345 12.0457 42.3374 12.1566C42.2542 12.2676 42.1502 12.3231 42.0254 12.3231H38.5302C38.3221 12.3231 38.0655 12.2121 37.7604 11.9902C37.4552 11.7683 37.2264 11.6573 37.0738 11.6573C36.7548 11.6573 36.5953 11.7683 36.5953 11.9902C36.5953 12.1289 36.63 12.2398 36.6993 12.3231C36.8796 12.5311 37.6355 12.7322 38.9671 12.9264C40.2986 13.1206 41.2903 13.5505 41.9421 14.2163C42.6079 14.8682 42.9408 15.5963 42.9408 16.4008C42.9408 17.5242 42.4345 18.405 41.422 19.043C40.4095 19.681 38.974 20 37.1154 20C36.1307 20 35.2569 19.8891 34.494 19.6671C33.7312 19.4452 33.1486 19.1678 32.7464 18.8349C31.9558 18.1831 31.5605 17.5728 31.5605 17.0041C31.5605 16.8516 31.6091 16.7198 31.7062 16.6088C31.8033 16.4979 31.9212 16.4424 32.0599 16.4424H35.6799C35.8741 16.4424 36.1237 16.5534 36.4289 16.7753C36.7479 16.9833 37.0461 17.0873 37.3235 17.0873C37.6009 17.0873 37.7396 16.9833 37.7396 16.7753Z" fill="#1F2937"/>
  <path d="M18.4634 16.6713C18.4634 14.7988 19.9821 13.5991 23.0196 13.072L25.2249 12.7183C25.2249 12.3022 25.1903 12.0249 25.1209 11.8862C25.0516 11.7336 24.8851 11.6573 24.6216 11.6573C24.3719 11.6573 24.1223 11.7683 23.8726 11.9902C23.623 12.2121 23.3872 12.3231 23.1653 12.3231H19.6284C19.3233 12.3231 19.1707 12.1774 19.1707 11.8862C19.1707 11.581 19.2748 11.262 19.4828 10.9291C19.7047 10.5824 20.0168 10.2426 20.419 9.9097C20.8351 9.57682 21.4107 9.29942 22.1458 9.07751C22.8948 8.85559 23.727 8.74463 24.6424 8.74463C26.501 8.74463 27.8949 9.13298 28.8242 9.9097C29.7534 10.6864 30.2181 11.796 30.2181 13.2385V19.2094C30.2181 19.362 30.1626 19.4938 30.0516 19.6047C29.9407 19.7157 29.8089 19.7712 29.6564 19.7712H26.0155C25.8629 19.7712 25.7312 19.7157 25.6202 19.6047C25.5093 19.4938 25.4538 19.362 25.4538 19.2094V18.6269C24.8019 19.5284 23.8518 19.9792 22.6035 19.9792C21.3552 19.9792 20.3497 19.6671 19.5868 19.043C18.8379 18.405 18.4634 17.6144 18.4634 16.6713ZM23.935 16.9001C24.8366 16.9001 25.2873 16.3592 25.2873 15.2773L24.0599 15.5478C23.4496 15.6865 23.1445 15.9431 23.1445 16.3176C23.1445 16.484 23.2138 16.6227 23.3525 16.7337C23.4912 16.8446 23.6854 16.9001 23.935 16.9001Z" fill="#1F2937"/>
  <path d="M4.56173 5.20801H16.7533C16.9059 5.20801 17.0377 5.26349 17.1486 5.37445C17.2596 5.48541 17.3151 5.61717 17.3151 5.76974V9.11931C17.3151 9.27188 17.2596 9.40364 17.1486 9.5146C17.0377 9.62556 16.9059 9.68104 16.7533 9.68104H13.2997V19.2096C13.2997 19.3622 13.2443 19.494 13.1333 19.6049C13.0223 19.7159 12.8906 19.7714 12.738 19.7714H8.57705C8.42448 19.7714 8.29272 19.7159 8.18176 19.6049C8.0708 19.494 8.01532 19.3622 8.01532 19.2096V9.68104H4.56173C4.40916 9.68104 4.2774 9.62556 4.16644 9.5146C4.05548 9.40364 4 9.27188 4 9.11931V5.76974C4 5.61717 4.05548 5.48541 4.16644 5.37445C4.2774 5.26349 4.40916 5.20801 4.56173 5.20801Z" fill="#1F2937"/>
  <path d="M116.58 15.5894H110.38V15.6934C110.38 16.5395 110.65 16.9625 111.191 16.9625C111.344 16.9625 111.531 16.8516 111.753 16.6296C111.975 16.4077 112.218 16.2968 112.481 16.2968H116.413C116.718 16.2968 116.871 16.4493 116.871 16.7545C116.871 17.4341 116.358 18.1415 115.331 18.8766C114.319 19.6117 112.939 19.9792 111.191 19.9792C109.458 19.9792 108.036 19.5284 106.926 18.6269C105.831 17.7115 105.283 16.4563 105.283 14.8612V13.8626C105.283 12.3508 105.844 11.1233 106.968 10.1802C108.091 9.22314 109.562 8.74463 111.379 8.74463C113.209 8.74463 114.624 9.27862 115.623 10.3466C116.635 11.4146 117.141 12.7669 117.141 14.4035V15.0277C117.141 15.1802 117.086 15.312 116.975 15.423C116.864 15.5339 116.732 15.5894 116.58 15.5894ZM112.044 12.9056C112.044 12.0734 111.767 11.6573 111.212 11.6573C110.657 11.6573 110.38 12.0734 110.38 12.9056V12.9888H112.044V12.9056Z" fill="#1F2937"/>
  <path d="M100.992 12.5937V14.8823C100.992 15.5758 101.29 15.9225 101.886 15.9225H103.779C103.932 15.9225 104.064 15.978 104.175 16.089C104.286 16.1999 104.341 16.3317 104.341 16.4842V19.2097C104.341 19.3622 104.286 19.494 104.175 19.605C104.064 19.7159 103.932 19.7714 103.779 19.7714H101.428C97.961 19.7714 96.2273 18.2804 96.2273 15.2984V12.5937H94.5837C94.4311 12.5937 94.2994 12.5383 94.1884 12.4273C94.0775 12.3164 94.022 12.1846 94.022 12.032V9.51464C94.022 9.36207 94.0775 9.23031 94.1884 9.11935C94.2994 9.00839 94.4311 8.95291 94.5837 8.95291H96.2273V5.56173C96.2273 5.40916 96.2828 5.2774 96.3937 5.16644C96.5047 5.05548 96.6364 5 96.789 5H100.43C100.582 5 100.714 5.05548 100.825 5.16644C100.936 5.2774 100.992 5.40916 100.992 5.56173V8.95291H103.613C103.766 8.95291 103.897 9.00839 104.008 9.11935C104.119 9.23031 104.175 9.36207 104.175 9.51464V12.032C104.175 12.1846 104.119 12.3164 104.008 12.4273C103.897 12.5383 103.766 12.5937 103.613 12.5937H100.992Z" fill="#1F2937"/>
  <path d="M81.2373 16.6713C81.2373 14.7988 82.7561 13.5991 85.7936 13.072L87.9989 12.7183C87.9989 12.3022 87.9642 12.0249 87.8948 11.8862C87.8255 11.7336 87.659 11.6573 87.3955 11.6573C87.1459 11.6573 86.8962 11.7683 86.6465 11.9902C86.3969 12.2121 86.1611 12.3231 85.9392 12.3231H82.4024C82.0972 12.3231 81.9447 12.1774 81.9447 11.8862C81.9447 11.581 82.0487 11.262 82.2567 10.9291C82.4787 10.5824 82.7907 10.2426 83.193 9.9097C83.6091 9.57682 84.1847 9.29942 84.9198 9.07751C85.6687 8.85559 86.5009 8.74463 87.4163 8.74463C89.2749 8.74463 90.6688 9.13298 91.5981 9.9097C92.5274 10.6864 92.992 11.796 92.992 13.2385V19.2094C92.992 19.362 92.9365 19.4938 92.8256 19.6047C92.7146 19.7157 92.5828 19.7712 92.4303 19.7712H88.7894C88.6369 19.7712 88.5051 19.7157 88.3942 19.6047C88.2832 19.4938 88.2277 19.362 88.2277 19.2094V18.6269C87.5758 19.5284 86.6257 19.9792 85.3775 19.9792C84.1292 19.9792 83.1236 19.6671 82.3608 19.043C81.6118 18.405 81.2373 17.6144 81.2373 16.6713ZM86.709 16.9001C87.6105 16.9001 88.0613 16.3592 88.0613 15.2773L86.8338 15.5478C86.2235 15.6865 85.9184 15.9431 85.9184 16.3176C85.9184 16.484 85.9877 16.6227 86.1264 16.7337C86.2651 16.8446 86.4593 16.9001 86.709 16.9001Z" fill="#1F2937"/>
  <path d="M74.1585 12.4687C73.9366 12.4687 73.7424 12.5519 73.576 12.7183C73.4234 12.8848 73.3471 13.1344 73.3471 13.4673V19.2094C73.3471 19.362 73.2916 19.4938 73.1807 19.6047C73.0697 19.7157 72.9379 19.7712 72.7854 19.7712H69.1237C68.9712 19.7712 68.8394 19.7157 68.7284 19.6047C68.6175 19.4938 68.562 19.362 68.562 19.2094V13.6129C68.562 12.8501 68.2846 12.4687 67.7298 12.4687C67.494 12.4687 67.2929 12.5588 67.1265 12.7391C66.9739 12.9056 66.8976 13.1414 66.8976 13.4465V19.2094C66.8976 19.362 66.8421 19.4938 66.7312 19.6047C66.6202 19.7157 66.4885 19.7712 66.3359 19.7712H62.591C62.4385 19.7712 62.3067 19.7157 62.1957 19.6047C62.0848 19.4938 62.0293 19.362 62.0293 19.2094V9.51441C62.0293 9.36184 62.0848 9.23007 62.1957 9.11912C62.3067 9.00816 62.4385 8.95268 62.591 8.95268H66.0238C66.1764 8.95268 66.3081 9.00816 66.4191 9.11912C66.5301 9.23007 66.5855 9.36184 66.5855 9.51441V10.201C66.8629 9.84035 67.2582 9.51441 67.7714 9.22314C68.3401 8.90413 68.9781 8.74463 69.6855 8.74463C71.2111 8.74463 72.2375 9.31329 72.7646 10.4506C73.0974 9.96518 73.5551 9.56295 74.1377 9.24394C74.7202 8.91107 75.3236 8.74463 75.9477 8.74463C77.0712 8.74463 77.9866 9.13992 78.6939 9.9305C79.4152 10.7211 79.7758 11.9 79.7758 13.4673V19.2094C79.7758 19.362 79.7203 19.4938 79.6093 19.6047C79.4984 19.7157 79.3666 19.7712 79.2141 19.7712H75.5524C75.3998 19.7712 75.2681 19.7157 75.1571 19.6047C75.0462 19.4938 74.9907 19.362 74.9907 19.2094V13.6129C74.9907 12.8501 74.7133 12.4687 74.1585 12.4687Z" fill="#1F2937"/>
</svg>