<svg xmlns="http://www.w3.org/2000/svg" width="210" height="44" viewBox="0 0 210 44" fill="none">
  <path d="M84.8255 9.61129V21.2593L87.9891 16.0824C88.2288 15.675 88.5763 15.4713 89.0317 15.4713H96.2937C96.5334 15.4713 96.7371 15.5551 96.9049 15.7229C97.0727 15.8907 97.1566 16.0824 97.1566 16.2981C97.1566 16.5138 97.0966 16.7056 96.9768 16.8733L92.0516 23.8837L97.8756 32.8354C97.9714 32.9792 98.0194 33.159 98.0194 33.3747C98.0194 33.5664 97.9355 33.7462 97.7677 33.9139C97.5999 34.0817 97.3962 34.1656 97.1566 34.1656H89.6069C89.1276 34.1656 88.7561 33.9619 88.4924 33.5544L84.8255 27.4428V33.1949C84.8255 33.4586 84.7296 33.6863 84.5379 33.878C84.3461 34.0697 84.1185 34.1656 83.8548 34.1656H77.5634C77.2998 34.1656 77.0721 34.0697 76.8804 33.878C76.6886 33.6863 76.5928 33.4586 76.5928 33.1949V9.61129C76.5928 9.34766 76.6886 9.11997 76.8804 8.92823C77.0721 8.73649 77.2998 8.64062 77.5634 8.64062H83.8548C84.1185 8.64062 84.3461 8.73649 84.5379 8.92823C84.7296 9.11997 84.8255 9.34766 84.8255 9.61129Z" fill="white"/>
  <path d="M65.214 28.9863C65.214 28.7467 65.1541 28.5549 65.0342 28.4111C64.7226 28.0276 63.5722 27.6562 61.583 27.2967C59.5937 26.9132 57.9759 26.2541 56.7296 25.3194C55.5073 24.3607 54.8961 23.0305 54.8961 21.3288C54.8961 19.6272 55.711 18.1652 57.3408 16.9429C58.9705 15.7205 61.1635 15.1094 63.9198 15.1094C66.6999 15.1094 68.9768 15.6846 70.7504 16.835C72.5239 17.9854 73.4107 19.1478 73.4107 20.3222C73.4107 20.5859 73.3268 20.8135 73.1591 21.0053C73.0153 21.197 72.8355 21.2929 72.6198 21.2929H66.5801C66.2206 21.2929 65.7772 21.1012 65.2499 20.7177C64.7226 20.3342 64.3272 20.1425 64.0636 20.1425C63.5123 20.1425 63.2367 20.3342 63.2367 20.7177C63.2367 20.9574 63.2966 21.1491 63.4164 21.2929C63.728 21.6524 65.0342 21.9999 67.3351 22.3355C69.6359 22.671 71.3496 23.414 72.476 24.5644C73.6264 25.6909 74.2016 26.9491 74.2016 28.3392C74.2016 30.2806 73.3268 31.8025 71.5772 32.905C69.8276 34.0074 67.347 34.5587 64.1355 34.5587C62.4338 34.5587 60.9239 34.367 59.6057 33.9835C58.2875 33.6 57.2809 33.1207 56.5858 32.5455C55.2197 31.419 54.5366 30.3644 54.5366 29.3818C54.5366 29.1182 54.6205 28.8905 54.7883 28.6987C54.956 28.507 55.1598 28.4111 55.3994 28.4111H61.6549C61.9904 28.4111 62.4218 28.6029 62.9491 28.9863C63.5003 29.3458 64.0156 29.5256 64.495 29.5256C64.9743 29.5256 65.214 29.3458 65.214 28.9863Z" fill="white"/>
  <path d="M31.9043 28.8066C31.9043 25.571 34.5287 23.4979 39.7775 22.5871L43.5883 21.976C43.5883 21.2569 43.5283 20.7776 43.4085 20.5379C43.2887 20.2743 43.0011 20.1425 42.5457 20.1425C42.1143 20.1425 41.6829 20.3342 41.2515 20.7177C40.8201 21.1012 40.4126 21.2929 40.0291 21.2929H33.9175C33.3903 21.2929 33.1266 21.0412 33.1266 20.5379C33.1266 20.0107 33.3064 19.4594 33.6659 18.8842C34.0494 18.285 34.5886 17.6978 35.2837 17.1226C36.0027 16.5474 36.9973 16.0681 38.2676 15.6846C39.5618 15.3011 40.9998 15.1094 42.5816 15.1094C45.7932 15.1094 48.2019 15.7805 49.8077 17.1226C51.4135 18.4648 52.2164 20.3821 52.2164 22.8747V33.1926C52.2164 33.4562 52.1206 33.6839 51.9288 33.8756C51.7371 34.0674 51.5094 34.1632 51.2458 34.1632H44.9544C44.6908 34.1632 44.4631 34.0674 44.2713 33.8756C44.0796 33.6839 43.9837 33.4562 43.9837 33.1926V32.1859C42.8573 33.7438 41.2155 34.5227 39.0585 34.5227C36.9014 34.5227 35.1638 33.9835 33.8456 32.905C32.5514 31.8025 31.9043 30.4363 31.9043 28.8066ZM41.3593 29.202C42.9172 29.202 43.6961 28.2673 43.6961 26.3979L41.575 26.8652C40.5205 27.1049 39.9932 27.5483 39.9932 28.1954C39.9932 28.483 40.113 28.7227 40.3527 28.9144C40.5924 29.1062 40.9279 29.202 41.3593 29.202Z" fill="white"/>
  <path d="M7.88229 9H28.9494C29.213 9 29.4407 9.09587 29.6324 9.28761C29.8242 9.47934 29.92 9.70703 29.92 9.97067V15.7587C29.92 16.0224 29.8242 16.2501 29.6324 16.4418C29.4407 16.6335 29.213 16.7294 28.9494 16.7294H22.9816V33.1948C22.9816 33.4584 22.8857 33.6861 22.694 33.8779C22.5022 34.0696 22.2745 34.1655 22.0109 34.1655H14.8208C14.5571 34.1655 14.3294 34.0696 14.1377 33.8779C13.946 33.6861 13.8501 33.4584 13.8501 33.1948V16.7294H7.88229C7.61865 16.7294 7.39096 16.6335 7.19923 16.4418C7.00749 16.2501 6.91162 16.0224 6.91162 15.7587V9.97067C6.91162 9.70703 7.00749 9.47934 7.19923 9.28761C7.39096 9.09587 7.61865 9 7.88229 9Z" fill="white"/>
  <path d="M201.45 26.9371H190.737V27.1169C190.737 28.5789 191.204 29.3099 192.139 29.3099C192.402 29.3099 192.726 29.1182 193.109 28.7347C193.493 28.3512 193.912 28.1595 194.368 28.1595H201.162C201.69 28.1595 201.953 28.4231 201.953 28.9504C201.953 30.1248 201.066 31.3471 199.293 32.6174C197.543 33.8876 195.159 34.5227 192.139 34.5227C189.143 34.5227 186.686 33.7438 184.769 32.1859C182.875 30.6041 181.929 28.4351 181.929 25.6789V23.9532C181.929 21.3408 182.899 19.2197 184.841 17.59C186.782 15.9362 189.323 15.1094 192.462 15.1094C195.626 15.1094 198.071 16.0321 199.796 17.8776C201.546 19.723 202.421 22.0598 202.421 24.888V25.9665C202.421 26.2301 202.325 26.4578 202.133 26.6495C201.941 26.8413 201.714 26.9371 201.45 26.9371ZM193.613 22.2995C193.613 20.8615 193.133 20.1425 192.175 20.1425C191.216 20.1425 190.737 20.8615 190.737 22.2995V22.4433H193.613V22.2995Z" fill="white"/>
  <path d="M174.513 21.7626V25.7172C174.513 26.9156 175.028 27.5147 176.059 27.5147H179.331C179.594 27.5147 179.822 27.6106 180.014 27.8023C180.205 27.9941 180.301 28.2218 180.301 28.4854V33.1949C180.301 33.4586 180.205 33.6863 180.014 33.878C179.822 34.0697 179.594 34.1656 179.331 34.1656H175.268C169.276 34.1656 166.28 31.5891 166.28 26.4362V21.7626H163.44C163.177 21.7626 162.949 21.6668 162.757 21.475C162.566 21.2833 162.47 21.0556 162.47 20.792V16.4419C162.47 16.1783 162.566 15.9506 162.757 15.7589C162.949 15.5671 163.177 15.4713 163.44 15.4713H166.28V9.61129C166.28 9.34766 166.376 9.11997 166.568 8.92823C166.76 8.73649 166.988 8.64062 167.251 8.64062H173.543C173.806 8.64062 174.034 8.73649 174.226 8.92823C174.417 9.11997 174.513 9.34766 174.513 9.61129V15.4713H179.043C179.307 15.4713 179.534 15.5671 179.726 15.7589C179.918 15.9506 180.014 16.1783 180.014 16.4419V20.792C180.014 21.0556 179.918 21.2833 179.726 21.475C179.534 21.6668 179.307 21.7626 179.043 21.7626H174.513Z" fill="white"/>
  <path d="M140.377 28.8066C140.377 25.571 143.002 23.4979 148.251 22.5871L152.061 21.976C152.061 21.2569 152.001 20.7776 151.882 20.5379C151.762 20.2743 151.474 20.1425 151.019 20.1425C150.587 20.1425 150.156 20.3342 149.725 20.7177C149.293 21.1012 148.886 21.2929 148.502 21.2929H142.391C141.863 21.2929 141.6 21.0412 141.6 20.5379C141.6 20.0107 141.78 19.4594 142.139 18.8842C142.522 18.285 143.062 17.6978 143.757 17.1226C144.476 16.5474 145.47 16.0681 146.741 15.6846C148.035 15.3011 149.473 15.1094 151.055 15.1094C154.266 15.1094 156.675 15.7805 158.281 17.1226C159.887 18.4648 160.69 20.3821 160.69 22.8747V33.1926C160.69 33.4562 160.594 33.6839 160.402 33.8756C160.21 34.0674 159.983 34.1632 159.719 34.1632H153.428C153.164 34.1632 152.936 34.0674 152.744 33.8756C152.553 33.6839 152.457 33.4562 152.457 33.1926V32.1859C151.33 33.7438 149.689 34.5227 147.532 34.5227C145.375 34.5227 143.637 33.9835 142.319 32.905C141.025 31.8025 140.377 30.4363 140.377 28.8066ZM149.832 29.202C151.39 29.202 152.169 28.2673 152.169 26.3979L150.048 26.8652C148.994 27.1049 148.466 27.5483 148.466 28.1954C148.466 28.483 148.586 28.7227 148.826 28.9144C149.066 29.1062 149.401 29.202 149.832 29.202Z" fill="white"/>
  <path d="M128.146 21.5445C127.762 21.5445 127.427 21.6883 127.139 21.976C126.876 22.2636 126.744 22.695 126.744 23.2702V33.1926C126.744 33.4562 126.648 33.6839 126.456 33.8756C126.264 34.0674 126.037 34.1632 125.773 34.1632H119.446C119.182 34.1632 118.954 34.0674 118.763 33.8756C118.571 33.6839 118.475 33.4562 118.475 33.1926V23.5218C118.475 22.2036 117.996 21.5445 117.037 21.5445C116.63 21.5445 116.282 21.7003 115.994 22.0119C115.731 22.2995 115.599 22.7069 115.599 23.2342V33.1926C115.599 33.4562 115.503 33.6839 115.311 33.8756C115.12 34.0674 114.892 34.1632 114.628 34.1632H108.157C107.894 34.1632 107.666 34.0674 107.474 33.8756C107.282 33.6839 107.187 33.4562 107.187 33.1926V16.4395C107.187 16.1759 107.282 15.9482 107.474 15.7565C107.666 15.5648 107.894 15.4689 108.157 15.4689H114.089C114.353 15.4689 114.58 15.5648 114.772 15.7565C114.964 15.9482 115.06 16.1759 115.06 16.4395V17.6259C115.539 17.0028 116.222 16.4395 117.109 15.9362C118.092 15.385 119.194 15.1094 120.416 15.1094C123.053 15.1094 124.826 16.092 125.737 18.0573C126.312 17.2185 127.103 16.5234 128.11 15.9722C129.116 15.397 130.159 15.1094 131.238 15.1094C133.179 15.1094 134.761 15.7924 135.983 17.1586C137.229 18.5247 137.852 20.5619 137.852 23.2702V33.1926C137.852 33.4562 137.757 33.6839 137.565 33.8756C137.373 34.0674 137.145 34.1632 136.882 34.1632H130.554C130.291 34.1632 130.063 34.0674 129.871 33.8756C129.68 33.6839 129.584 33.4562 129.584 33.1926V23.5218C129.584 22.2036 129.104 21.5445 128.146 21.5445Z" fill="white"/>
</svg>