<svg width="24" height="24" viewBox="0 0 24 24" fill="none" xmlns="http://www.w3.org/2000/svg">
<path d="M3 10.5763C3 9.65959 3.41914 8.79318 4.13789 8.22417L9.51719 3.96556C10.972 2.81381 13.028 2.8138 14.4828 3.96556L19.8621 8.22417C20.5809 8.79318 21 9.65959 21 10.5763V18C21 19.6569 19.6569 21 18 21H15.8421C15.2898 21 14.8421 20.5523 14.8421 20V17.3C14.8421 16.1954 13.9467 15.3 12.8421 15.3H11.1579C10.0533 15.3 9.1579 16.1954 9.1579 17.3V20C9.1579 20.5523 8.71018 21 8.15789 21H6C4.34314 21 3 19.6569 3 18L3 10.5763Z" fill="currentColor" stroke="currentColor" stroke-width="2"/>
</svg>
