<svg xmlns="http://www.w3.org/2000/svg" width="199" height="192" viewBox="0 0 199 192" fill="none">
  <path d="M43.7598 199.518C43.7598 191.786 50.0278 185.518 57.7598 185.518H107.08C109.289 185.518 111.08 187.308 111.08 189.518V219.118C111.08 222.431 108.393 225.118 105.08 225.118H57.7598C50.0278 225.118 43.7598 218.85 43.7598 211.118V199.518Z" fill="#7E77FF"/>
  <path d="M73.4424 165.641C73.4424 163.431 75.2332 161.641 77.4424 161.641H107.062C109.272 161.641 111.062 163.431 111.062 165.641V201.201C111.062 203.41 109.272 205.201 107.062 205.201H77.4424C75.2332 205.201 73.4424 203.41 73.4424 201.201V165.641Z" fill="#7E77FF"/>
  <path d="M194.24 199.518C194.24 191.786 187.972 185.518 180.24 185.518H130.92C128.711 185.518 126.92 187.308 126.92 189.518V219.118C126.92 222.431 129.607 225.118 132.92 225.118H180.24C187.972 225.118 194.24 218.85 194.24 211.118V199.518Z" fill="#7E77FF"/>
  <path d="M164.558 165.641C164.558 163.431 162.767 161.641 160.558 161.641H130.938C128.728 161.641 126.938 163.431 126.938 165.641V201.201C126.938 203.41 128.728 205.201 130.938 205.201H160.558C162.767 205.201 164.558 203.41 164.558 201.201V165.641Z" fill="#7E77FF"/>
  <path d="M107.618 36.1924C112.172 23.3539 135.813 24.2503 140.368 37.0887C141.056 39.0289 143.713 39.5286 145.135 37.9851C154.54 27.7716 168.888 27.7069 167.898 41.2157C167.749 43.2572 170.002 44.6801 171.94 43.7683C184.763 37.7347 194.305 60.8196 187.922 72.9423C186.958 74.7743 188.463 76.9039 190.622 76.7626C204.912 75.8274 217.67 84.8277 206.866 93.7184C205.234 95.0619 205.762 97.5738 207.814 98.2245C221.395 102.53 221.395 132.487 207.814 136.493C205.762 137.099 205.234 139.437 206.866 140.687C217.67 148.961 204.912 167.05 190.622 166.18C188.463 166.048 186.958 168.03 187.922 169.735C194.305 181.017 180.722 188.672 167.898 183.057C165.961 182.208 163.708 183.533 163.857 185.433C164.847 198.004 154.54 202.93 145.135 193.425C143.713 191.989 141.056 192.454 140.368 194.259C135.813 206.207 102.223 206.207 97.6683 194.259C96.98 192.454 94.3227 191.989 92.9015 193.425C83.4965 202.93 68.6506 195.629 69.6398 183.057C69.7893 181.157 67.5367 179.833 65.5987 180.681C52.7752 186.296 37.2706 172.264 43.653 160.982C44.6175 159.277 43.1123 157.295 40.9528 157.427C26.6629 158.297 19.8677 138.438 30.6716 130.164C32.3043 128.914 31.7758 126.576 29.7234 125.97C16.1428 121.964 17.0918 104.881 30.6724 100.576C32.7248 99.9252 33.2533 97.4132 31.6206 96.0695C20.8167 87.1786 29.3631 69.073 43.653 70.0082C45.8125 70.1495 47.3177 68.02 46.3532 66.188C39.9707 54.0653 48.7341 40.2873 61.5576 46.3209C63.4955 47.2328 65.7482 45.8098 65.5987 43.7683C64.6095 30.2595 93.4458 26.8753 102.851 37.0887C104.272 38.6322 106.929 38.1325 107.618 36.1924Z" fill="#C8C5FF"/>
  <ellipse cx="63.5" cy="139.5" rx="13.5" ry="5.5" fill="#B6B1FF"/>
  <ellipse cx="167" cy="139.5" rx="13" ry="5.5" fill="#B6B1FF"/>
  <circle cx="92.2395" cy="103.2" r="27.72" fill="#F8F7FF"/>
  <circle cx="139.76" cy="103.2" r="27.72" fill="#F8F7FF"/>
  <circle cx="87" cy="96" r="14" fill="#4B5563"/>
  <path d="M80.5349 88.1794C80.7013 87.7573 81.2987 87.7573 81.4651 88.1794L82.0517 89.6666C82.1025 89.7955 82.2045 89.8975 82.3334 89.9483L83.8206 90.5349C84.2427 90.7013 84.2427 91.2987 83.8206 91.4651L82.3334 92.0517C82.2045 92.1025 82.1025 92.2045 82.0517 92.3334L81.4651 93.8206C81.2987 94.2427 80.7013 94.2427 80.5349 93.8206L79.9483 92.3334C79.8975 92.2045 79.7955 92.1025 79.6666 92.0517L78.1794 91.4651C77.7573 91.2987 77.7573 90.7013 78.1794 90.5349L79.6666 89.9483C79.7955 89.8975 79.8975 89.7955 79.9483 89.6666L80.5349 88.1794Z" fill="#F8F7FF"/>
  <path d="M13.092 3.83194C13.5734 2.52172 15.4266 2.52172 15.908 3.83194L18.1568 9.95252C18.3087 10.3657 18.6343 10.6913 19.0475 10.8432L25.1681 13.092C26.4783 13.5734 26.4783 15.4266 25.1681 15.908L19.0475 18.1568C18.6343 18.3087 18.3087 18.6343 18.1568 19.0475L15.908 25.1681C15.4266 26.4783 13.5734 26.4783 13.092 25.1681L10.8432 19.0475C10.6913 18.6343 10.3657 18.3087 9.95252 18.1568L3.83194 15.908C2.52172 15.4266 2.52172 13.5734 3.83194 13.092L9.95252 10.8432C10.3657 10.6913 10.6913 10.3657 10.8432 9.95252L13.092 3.83194Z" fill="#7E77FF"/>
  <path d="M13.0402 41.282C13.3207 40.3229 14.6793 40.3229 14.9598 41.282L16.1091 45.2118C16.2048 45.5392 16.4608 45.7952 16.7882 45.8909L20.718 47.0402C21.6771 47.3207 21.6771 48.6793 20.718 48.9598L16.7882 50.1091C16.4608 50.2048 16.2048 50.4608 16.1091 50.7882L14.9598 54.718C14.6793 55.6771 13.3207 55.6771 13.0402 54.718L11.8909 50.7882C11.7952 50.4608 11.5392 50.2048 11.2118 50.1091L7.28195 48.9598C6.32287 48.6793 6.32287 47.3207 7.28195 47.0402L11.2118 45.8909C11.5392 45.7952 11.7952 45.5392 11.8909 45.2118L13.0402 41.282Z" fill="#A39EFF"/>
  <path d="M34.0402 26.282C34.3207 25.3229 35.6793 25.3229 35.9598 26.282L37.1091 30.2118C37.2048 30.5392 37.4608 30.7952 37.7882 30.8909L41.718 32.0402C42.6771 32.3207 42.6771 33.6793 41.718 33.9598L37.7882 35.1091C37.4608 35.2048 37.2048 35.4608 37.1091 35.7882L35.9598 39.718C35.6793 40.6771 34.3207 40.6771 34.0402 39.718L32.8909 35.7882C32.7952 35.4608 32.5392 35.2048 32.2118 35.1091L28.282 33.9598C27.3229 33.6793 27.3229 32.3207 28.282 32.0402L32.2118 30.8909C32.5392 30.7952 32.7952 30.5392 32.8909 30.2118L34.0402 26.282Z" fill="#A39EFF"/>
  <circle cx="134.86" cy="95.8594" r="14" fill="#4B5563"/>
  <path d="M129.861 142.829C129.861 147.75 123.655 151.74 116.001 151.74C108.346 151.74 102.141 147.75 102.141 142.829C102.141 133.919 105.606 133.92 116.001 133.92C126.396 133.92 129.861 133.919 129.861 142.829Z" fill="#918AFF"/>
  <path d="M88.2604 121.971V126.921H81.3845V121.971H88.2604ZM111.03 99.2007V83.1809C111.03 81.7107 110.139 80.3864 108.778 79.8319L106.892 79.0642C91.0582 72.6158 73.2581 73.0231 57.7347 80.1877C56.7909 80.6235 56.2679 81.4087 56.1705 82.1464C55.0077 90.9583 55.734 98.6903 57.1199 105.102C59.2098 114.771 70.1019 121.971 81.3845 121.971V126.921L80.1741 126.897C67.8692 126.414 55.3281 118.605 52.4154 106.736L52.2801 106.148C50.8871 99.7032 50.1146 91.996 51.0522 83.2601L51.263 81.4986C51.5805 79.0937 53.1037 77.0483 55.2288 75.9086L55.6619 75.692C72.4294 67.9536 91.6551 67.5147 108.758 74.4797L110.646 75.2473C113.871 76.561 115.98 79.6979 115.98 83.1809V99.2007L115.971 99.9161C115.591 114.895 103.331 126.921 88.2604 126.921V121.971C100.836 121.971 111.03 111.776 111.03 99.2007Z" fill="#6B7280"/>
  <path d="M139.74 121.971V126.921H146.615V121.971H139.74ZM116.97 99.2007V83.1809C116.97 81.7107 117.861 80.3864 119.222 79.8319L121.108 79.0642C136.942 72.6158 154.742 73.0231 170.265 80.1877C171.209 80.6235 171.732 81.4087 171.83 82.1464C172.992 90.9583 172.266 98.6903 170.88 105.102C168.79 114.771 157.898 121.971 146.615 121.971V126.921L147.826 126.897C160.131 126.414 172.672 118.605 175.585 106.736L175.72 106.148C177.113 99.7032 177.885 91.996 176.948 83.2601L176.737 81.4986C176.42 79.0937 174.896 77.0483 172.771 75.9086L172.338 75.692C155.571 67.9536 136.345 67.5147 119.242 74.4797L117.354 75.2473C114.129 76.561 112.02 79.6979 112.02 83.1809V99.2007L112.029 99.9161C112.409 114.895 124.669 126.921 139.74 126.921V121.971C127.164 121.971 116.97 111.776 116.97 99.2007Z" fill="#6B7280"/>
  <path d="M129.535 88.1794C129.701 87.7573 130.299 87.7573 130.465 88.1794L131.052 89.6666C131.103 89.7955 131.205 89.8975 131.333 89.9483L132.821 90.5349C133.243 90.7013 133.243 91.2987 132.821 91.4651L131.333 92.0517C131.205 92.1025 131.103 92.2045 131.052 92.3334L130.465 93.8206C130.299 94.2427 129.701 94.2427 129.535 93.8206L128.948 92.3334C128.897 92.2045 128.795 92.1025 128.667 92.0517L127.179 91.4651C126.757 91.2987 126.757 90.7013 127.179 90.5349L128.667 89.9483C128.795 89.8975 128.897 89.7955 128.948 89.6666L129.535 88.1794Z" fill="#F8F7FF"/>
  <circle cx="91" cy="99" r="5" fill="#6B7280"/>
  <circle cx="139" cy="99" r="5" fill="#6B7280"/>
</svg>