<svg width="140" height="140" viewBox="0 0 140 140" fill="none" xmlns="http://www.w3.org/2000/svg">
<circle cx="70" cy="70" r="70" fill="#EDECFF"/>
<path d="M32 110.059C32 104.536 36.4772 100.059 42 100.059H62C64.2091 100.059 66 101.85 66 104.059V114.059C66 117.373 63.3137 120.059 60 120.059H42C36.4772 120.059 32 115.582 32 110.059Z" fill="#7E77FF"/>
<path d="M46.9912 92C46.9912 89.7909 48.7821 88 50.9912 88H61.9912C64.2003 88 65.9912 89.7909 65.9912 92V106C65.9912 108.209 64.2003 110 61.9912 110H50.9912C48.7821 110 46.9912 108.209 46.9912 106V92Z" fill="#7E77FF"/>
<path d="M108 110.059C108 104.536 103.523 100.059 98 100.059H78C75.7909 100.059 74 101.85 74 104.059V114.059C74 117.373 76.6863 120.059 80 120.059H98C103.523 120.059 108 115.582 108 110.059Z" fill="#7E77FF"/>
<path d="M93.0088 92C93.0088 89.7909 91.2179 88 89.0088 88H78.0088C75.7997 88 74.0088 89.7909 74.0088 92V106C74.0088 108.209 75.7997 110 78.0088 110H89.0088C91.2179 110 93.0088 108.209 93.0088 106V92Z" fill="#7E77FF"/>
<path d="M64.2513 24.6426C66.5516 18.1586 78.4916 18.6113 80.7918 25.0953C81.1395 26.0752 82.4815 26.3276 83.1993 25.548C87.9493 20.3897 95.1958 20.357 94.6962 27.1797C94.6207 28.2107 95.7584 28.9294 96.7371 28.4689C103.214 25.4216 108.033 37.0806 104.809 43.2032C104.322 44.1284 105.082 45.204 106.173 45.1326C113.39 44.6603 119.833 49.2059 114.377 53.6961C113.552 54.3747 113.819 55.6433 114.856 55.972C121.715 58.1464 121.715 73.276 114.856 75.2997C113.819 75.6055 113.552 76.7862 114.377 77.4177C119.833 81.5966 113.39 90.7323 106.173 90.2928C105.082 90.2264 104.322 91.2273 104.809 92.0884C108.033 97.7862 101.173 101.653 94.6962 98.8167C93.7174 98.3881 92.5797 99.0569 92.6552 100.016C93.1548 106.366 87.9493 108.853 83.1993 104.053C82.4815 103.328 81.1395 103.562 80.7918 104.474C78.4916 110.509 61.5267 110.509 59.2264 104.474C58.8788 103.562 57.5367 103.328 56.8189 104.053C52.0689 108.853 44.571 105.166 45.0706 98.8167C45.1461 97.8572 44.0084 97.1884 43.0297 97.6169C36.5531 100.453 28.7225 93.3655 31.946 87.6677C32.4331 86.8067 31.6729 85.8057 30.5822 85.8722C23.3651 86.3117 19.9332 76.2819 25.3897 72.1031C26.2143 71.4716 25.9474 70.2909 24.9108 69.9851C18.0519 67.9614 18.5312 59.3341 25.3901 57.1595C26.4267 56.8309 26.6936 55.5622 25.869 54.8836C20.4125 50.3932 24.7288 41.249 31.946 41.7213C33.0366 41.7927 33.7968 40.7172 33.3097 39.7919C30.0862 33.6693 34.5122 26.7108 40.9887 29.7581C41.9674 30.2186 43.1052 29.4999 43.0297 28.4689C42.5301 21.6462 57.0938 19.937 61.8438 25.0953C62.5616 25.8749 63.9037 25.6225 64.2513 24.6426Z" fill="#C8C5FF"/>
<circle cx="58" cy="60" r="14" fill="#F8F7FF"/>
<circle cx="82" cy="60" r="14" fill="#F8F7FF"/>
<circle cx="58" cy="58" r="7" fill="#4B5563"/>
<circle cx="82" cy="58" r="7" fill="#4B5563"/>
<path d="M77 78.4997C77 80.9849 73.866 83 70 83C66.134 83 63 80.9849 63 78.4997C63 73.9995 64.75 74 70 74C75.25 74 77 73.9997 77 78.4997Z" fill="#918AFF"/>
<path d="M57 71.5001V74.0001H53.5273V71.5001H57ZM68.5 60.0001V51.9092C68.5 51.1668 68.05 50.4979 67.3623 50.2178L66.4102 49.8301C58.413 46.5734 49.4231 46.779 41.583 50.3975C41.1063 50.6177 40.8422 51.0142 40.793 51.3868C40.2057 55.8373 40.5725 59.7423 41.2725 62.9805C42.328 67.864 47.8291 71.5001 53.5273 71.5001V74.0001L52.916 73.9883C46.7014 73.7439 40.3675 69.8003 38.8965 63.8057L38.8281 63.5089C38.1246 60.2539 37.7345 56.3614 38.208 51.9493L38.3145 51.0596C38.4748 49.845 39.2441 48.812 40.3174 48.2364L40.5361 48.127C49.0046 44.2187 58.7145 43.9971 67.3525 47.5147L68.3057 47.9024C69.9348 48.5659 71 50.1502 71 51.9092V60.0001L70.9951 60.3614C70.8035 67.9264 64.6112 74.0001 57 74.0001V71.5001C63.3513 71.5001 68.5 66.3513 68.5 60.0001Z" fill="#6B7280"/>
<path d="M83 71.5001V74.0001H86.4727V71.5001H83ZM71.5 60.0001V51.9092C71.5 51.1668 71.95 50.4979 72.6377 50.2178L73.5898 49.8301C81.587 46.5734 90.5769 46.779 98.417 50.3975C98.8937 50.6177 99.1578 51.0142 99.207 51.3868C99.7943 55.8373 99.4275 59.7423 98.7275 62.9805C97.672 67.864 92.1709 71.5001 86.4727 71.5001V74.0001L87.084 73.9883C93.2986 73.7439 99.6325 69.8003 101.104 63.8057L101.172 63.5089C101.875 60.2539 102.266 56.3614 101.792 51.9493L101.686 51.0596C101.525 49.845 100.756 48.812 99.6826 48.2364L99.4639 48.127C90.9954 44.2187 81.2855 43.9971 72.6475 47.5147L71.6943 47.9024C70.0652 48.5659 69 50.1502 69 51.9092V60.0001L69.0049 60.3614C69.1965 67.9264 75.3888 74.0001 83 74.0001V71.5001C76.6487 71.5001 71.5 66.3513 71.5 60.0001Z" fill="#6B7280"/>
</svg>
