<svg width="140" height="140" viewBox="0 0 140 140" fill="none" xmlns="http://www.w3.org/2000/svg">
<circle cx="70" cy="70" r="70" fill="#F4FDFC"/>
<path d="M29 110C29 104.477 33.4772 100 39 100H59C61.2091 100 63 101.791 63 104V114C63 117.314 60.3137 120 57 120H39C33.4772 120 29 115.523 29 110Z" fill="#2EC4B6"/>
<path d="M112.421 104.6C110.991 99.265 105.508 96.0992 100.173 97.5286L80.8547 102.705C78.7209 103.277 77.4546 105.47 78.0263 107.604L80.6145 117.263C81.4722 120.464 84.7622 122.364 87.963 121.506L105.35 116.847C110.684 115.418 113.85 109.934 112.421 104.6Z" fill="#2EC4B6"/>
<path d="M50.9282 24.6426C53.2285 18.1585 81.813 18.6113 84.1133 25.0954C84.4609 26.0753 85.8029 26.3276 86.5207 25.5481C91.2707 20.3898 94.7165 21.9055 94.2169 28.7281C94.1414 29.7592 95.2791 30.4778 96.2579 30.0173C102.734 26.97 113.381 39.5666 110.157 45.6892C109.67 46.6144 110.43 47.6899 111.521 47.6186C118.738 47.1463 121.999 65.7823 116.542 70.2725C115.718 70.9511 115.984 72.2197 117.021 72.5483C123.88 74.7228 120.757 79.0605 113.898 81.0842C112.861 81.39 112.594 82.5707 113.419 83.2022C118.875 87.3811 112.911 92.2808 105.694 91.8413C104.603 91.7749 103.843 92.7758 104.33 93.6369C107.553 99.3347 100.693 103.884 94.2169 101.048C93.2382 100.62 92.1004 101.289 92.1759 102.248C92.6756 108.597 86.271 109.77 81.521 104.97C80.8032 104.244 79.4611 104.479 79.1135 105.391C76.8132 111.425 55.6361 111.004 53.3358 104.97C52.9882 104.058 51.6462 103.823 50.9284 104.548C46.1784 109.349 42.0508 106.097 42.5504 99.7481C42.6259 98.7886 41.4882 98.1198 40.5094 98.5483C34.0329 101.384 28.2432 94.914 31.4667 89.2162C31.9538 88.3551 31.1936 87.3542 30.103 87.4206C22.8859 87.8602 20.4124 85.2631 25.869 81.0842C26.6936 80.4527 26.4266 79.272 25.3901 78.9662C18.5312 76.9425 18.0519 60.8826 24.9109 58.708C25.9474 58.3794 26.2143 57.1107 25.3897 56.4321C19.9332 51.9417 20.3039 47.1463 27.521 47.6186C28.6117 47.6899 29.3719 46.6144 28.8847 45.6891C25.6613 39.5666 34.0329 28.2592 40.5094 31.3065C41.4882 31.767 42.6259 31.0484 42.5504 30.0173C42.0508 23.1946 43.7708 19.937 48.5207 25.0953C49.2386 25.8748 50.5806 25.6225 50.9282 24.6426Z" fill="#B5EEEB"/>
<path d="M75.2607 43.9921C78.1534 41.8708 81.9053 41.3096 85.2919 42.4921L85.412 42.5341C86.0637 42.7617 86.4071 43.4742 86.1796 44.1259C85.952 44.7776 85.2396 45.122 84.5878 44.8944L84.4677 44.8525C81.8585 43.9414 78.9679 44.3734 76.7392 46.0077C76.1825 46.4159 75.4004 46.2958 74.9921 45.7392C74.5839 45.1825 74.7041 44.4004 75.2607 43.9921Z" fill="#75DFD5"/>
<circle cx="58" cy="62" r="14" fill="#FAFFFE"/>
<circle cx="82" cy="62" r="14" fill="#FAFFFE"/>
<path d="M63 60C63 63.866 59.866 67 56 67C52.134 67 49 63.866 49 60C49 56.134 52.134 53 56 53C59.866 53 63 56.134 63 60Z" fill="#4B5563"/>
<path d="M87 54C88.1046 54 89 54.8954 89 56C89 57.1046 88.1046 58 87 58C84.8001 58 82.6309 58.407 80.5986 59.1895C82.645 59.7972 84.6373 60.5828 86.5517 61.54L87.8945 62.2109C88.8825 62.7049 89.283 63.9066 88.7891 64.8945C88.2951 65.8825 87.0934 66.283 86.1055 65.7891L84.7627 65.1172C81.8536 63.6627 78.7433 62.6519 75.5351 62.1172L75.2197 62.0645C73.2348 61.7336 72.6791 59.1436 74.3535 58.0273L74.8984 57.6641C78.4822 55.2749 82.6929 54 87 54Z" fill="#4B5563"/>
<path d="M72.9151 78.3798C73.2576 77.7805 74.0208 77.5725 74.6202 77.915C75.2195 78.2575 75.4275 79.0207 75.085 79.62C72.8365 83.5547 67.1636 83.5547 64.9151 79.62C64.5726 79.0207 64.7806 78.2575 65.3799 77.915C65.9793 77.5725 66.7425 77.7805 67.085 78.3798C68.3737 80.6351 71.6263 80.6351 72.9151 78.3798Z" fill="#2EC4B6"/>
</svg>
