<svg width="24" height="24" viewBox="0 0 24 24" fill="none" xmlns="http://www.w3.org/2000/svg">
<path d="M19 2C20.6569 2 22 3.34315 22 5V13H17C16.3212 13 15.7113 12.9975 15.2207 13.0635C14.7014 13.1333 14.1688 13.296 13.7324 13.7324C13.296 14.1688 13.1333 14.7014 13.0635 15.2207C12.9975 15.7113 13 16.3212 13 17V22H5C3.34315 22 2 20.6569 2 19V5C2 3.34315 3.34315 2 5 2H19ZM21.7266 15C21.5792 15.3234 21.3772 15.6228 21.1211 15.8789L15.8789 21.1211C15.6228 21.3772 15.3234 21.5792 15 21.7266V17C15 16.2646 15.002 15.8137 15.0459 15.4873C15.0859 15.1898 15.1436 15.1494 15.1465 15.1465C15.1494 15.1436 15.1897 15.0859 15.4873 15.0459C15.8137 15.002 16.2646 15 17 15H21.7266Z" fill="currentColor"/>
</svg>
