<svg width="40" height="40" viewBox="0 0 40 40" fill="none" xmlns="http://www.w3.org/2000/svg">
<path d="M0 12C0 5.37258 5.37258 0 12 0H28C34.6274 0 40 5.37258 40 12V28C40 34.6274 34.6274 40 28 40H12C5.37258 40 0 34.6274 0 28V12Z" fill="#E5F9F7"/>
<path d="M13 21V11.5C13 11.2643 13 11.1464 13.0732 11.0732C13.1464 11 13.2643 11 13.5 11H17.5958C17.7954 11 17.8951 11 17.9853 11.0364C18.0754 11.0729 18.1472 11.1422 18.2907 11.2808L19.7793 12.7192C19.9228 12.8578 19.9946 12.9271 20.0847 12.9636C20.1749 13 20.2746 13 20.4742 13H26.67C26.9127 13 27.034 13 27.0767 13.0782C27.1193 13.1563 27.0536 13.2584 26.9222 13.4624L24.1743 17.7293C24.0897 17.8607 24.0474 17.9265 24.0474 18C24.0474 18.0735 24.0897 18.1393 24.1743 18.2707L26.9222 22.5376C27.0536 22.7416 27.1193 22.8437 27.0767 22.9218C27.034 23 26.9127 23 26.67 23H20.4742C20.2746 23 20.1749 23 20.0847 22.9636C19.9946 22.9271 19.9228 22.8578 19.7793 22.7192L18.2907 21.2808C18.1472 21.1422 18.0754 21.0729 17.9853 21.0364C17.8951 21 17.7954 21 17.5958 21H13ZM13 21V27" stroke="#2EC4B6" stroke-width="2" stroke-linecap="round"/>
<path d="M13 11.5V20.5C13 20.7357 13 20.8536 13.0732 20.9268C13.1464 21 13.2643 21 13.5 21H17.5958C17.7954 21 17.8951 21 17.9853 21.0364C18.0754 21.0729 18.1472 21.1422 18.2907 21.2808L19.7793 22.7192C19.9228 22.8578 19.9946 22.9271 20.0847 22.9636C20.1749 23 20.2746 23 20.4742 23H26.67C26.9127 23 27.034 23 27.0767 22.9218C27.1193 22.8437 27.0536 22.7416 26.9222 22.5376L26.9222 22.5376L24.1743 18.2707C24.0897 18.1393 24.0474 18.0735 24.0474 18C24.0474 17.9265 24.0897 17.8607 24.1743 17.7293L26.9222 13.4624C27.0536 13.2584 27.1193 13.1563 27.0767 13.0782C27.034 13 26.9127 13 26.67 13H20.4742C20.2746 13 20.1749 13 20.0847 12.9636C19.9946 12.9271 19.9228 12.8578 19.7793 12.7192L18.2907 11.2808C18.1472 11.1422 18.0754 11.0729 17.9853 11.0364C17.8951 11 17.7954 11 17.5958 11H13.5C13.2643 11 13.1464 11 13.0732 11.0732C13 11.1464 13 11.2643 13 11.5Z" fill="#2EC4B6"/>
</svg>
