<svg
  xmlns="http://www.w3.org/2000/svg"
  width="30"
  height="30"
  viewBox="0 0 30 30"
  fill="none"
>
  <g clip-path="url(#clip0_568_12619)">
    <path
      d="M13.5 16.3047L13.5 2.05469"
      stroke="#7E77FF"
      stroke-width="2"
      stroke-linecap="round"
      stroke-linejoin="round"
    />
    <path
      d="M11.9276 17.46C13.3289 17.46 13.3289 18.9207 14.7309 18.9207C16.1329 18.9207 16.1335 17.46 17.5362 17.46C18.9388 17.46 18.9402 18.9207 20.3435 18.9207C21.3533 18.9207 21.6415 18.1701 22.2436 17.7456L19.0124 11.9568C18.6803 11.3614 18.0519 10.9922 17.3695 10.9922H12.6296C11.9479 10.9922 11.3194 11.3614 10.9867 11.9568L7.58398 18.0527C7.98561 18.4577 8.33256 18.9207 9.12366 18.9207C10.525 18.9207 10.525 17.46 11.9263 17.46H11.9276Z"
      fill="#F8F7FF"
    />
    <path
      d="M27.2466 26.7098L22.2435 17.7465C21.6414 18.1704 21.3531 18.9216 20.3433 18.9216C18.9393 18.9216 18.9393 17.4609 17.536 17.4609C16.1327 17.4609 16.1334 18.9216 14.7307 18.9216C13.3281 18.9216 13.3294 17.4609 11.9274 17.4609C10.5255 17.4609 10.5261 18.9216 9.12484 18.9216C8.33374 18.9216 7.98747 18.4586 7.58517 18.0536L2.75352 26.7098C2.05354 27.9639 2.96007 29.5077 4.39647 29.5077H25.6036C27.0393 29.5077 27.9459 27.9633 27.2466 26.7098Z"
      fill="#918AFF"
    />
    <path
      d="M20.2172 2.60938H14.3477V6.52242H20.2172L19.3787 4.5659L20.2172 2.60938Z"
      fill="#7E77FF"
      stroke="#7E77FF"
      stroke-width="1.5"
      stroke-linecap="round"
      stroke-linejoin="round"
    />
  </g>
  <defs>
    <clipPath id="clip0_568_12619">
      <rect
        width="30"
        height="30"
        fill="white"
      />
    </clipPath>
  </defs>
</svg>