<svg width="40" height="40" viewBox="0 0 40 40" fill="none" xmlns="http://www.w3.org/2000/svg">
<rect width="40" height="40" rx="12" fill="#EDECFF"/>
<path d="M29.8999 22.9486C29.4793 22.0604 28.8233 21.3124 28.0075 20.7907C27.1918 20.2691 26.2493 19.995 25.2888 20.0001H23.5999C22.6374 19.998 21.6938 20.2753 20.8777 20.8001C21.3317 21.2818 21.7103 21.8331 21.9999 22.4344C22.1452 22.7405 22.2212 23.0765 22.2221 23.4172V28.0001H28.8888C29.1832 27.9992 29.4653 27.8785 29.6735 27.6644C29.8817 27.4502 29.999 27.16 29.9999 26.8572V23.4172C29.9999 23.2554 29.9658 23.0955 29.8999 22.9486Z" fill="#7E77FF"/>
<path d="M16.4047 20H14.7065C13.7481 19.9967 12.8081 20.2711 11.9942 20.7918C11.1804 21.3124 10.5255 22.0583 10.1046 22.9439C10.0342 23.0951 9.99847 23.2609 10.0001 23.4286V26.8572C10.0001 27.1603 10.1171 27.451 10.3255 27.6653C10.5339 27.8796 10.8165 28 11.1112 28H21.1111V23.4206C21.1127 23.2555 21.0769 23.0923 21.0066 22.9439C20.5857 22.0583 19.9308 21.3124 19.1169 20.7918C18.3031 20.2711 17.3631 19.9967 16.4047 20Z" fill="#7E77FF"/>
<path d="M15.5555 18.8571C17.3964 18.8571 18.8888 17.3221 18.8888 15.4286C18.8888 13.535 17.3964 12 15.5555 12C13.7145 12 12.2222 13.535 12.2222 15.4286C12.2222 17.3221 13.7145 18.8571 15.5555 18.8571Z" fill="#7E77FF"/>
<path d="M24.4444 18.8571C26.2854 18.8571 27.7777 17.3221 27.7777 15.4286C27.7777 13.535 26.2854 12 24.4444 12C22.6035 12 21.1111 13.535 21.1111 15.4286C21.1111 17.3221 22.6035 18.8571 24.4444 18.8571Z" fill="#7E77FF"/>
</svg>
